<?xml version="1.0" standalone="no"?>
<!DOCTYPE svg PUBLIC "-//W3C//DTD SVG 20010904//EN"
 "http://www.w3.org/TR/2001/REC-SVG-20010904/DTD/svg10.dtd">
<svg version="1.0" xmlns="http://www.w3.org/2000/svg"
 width="1280.000000pt" height="1177.000000pt" viewBox="0 0 1280.000000 1177.000000"
 preserveAspectRatio="xMidYMid meet">
<metadata>
Created by potrace 1.15, written by Peter Selinger 2001-2017
</metadata>
<g transform="translate(0.000000,1177.000000) scale(0.100000,-0.100000)"
fill="#000000" stroke="none">
<path d="M9630 11764 c-8 -3 -23 -18 -32 -34 -11 -20 -25 -30 -40 -30 -13 0
-30 -5 -38 -10 -14 -9 -16 -22 -19 -128 -1 -13 -12 -49 -25 -80 -13 -31 -29
-75 -36 -97 -7 -21 -21 -46 -31 -55 -20 -17 -109 -187 -109 -208 0 -11 8 -13
29 -9 63 13 60 -59 -4 -107 -30 -24 -33 -30 -28 -64 3 -20 10 -41 14 -47 15
-16 10 -39 -16 -77 -14 -20 -32 -68 -42 -106 -16 -68 -16 -70 5 -100 25 -35
28 -87 8 -135 -14 -34 -6 -138 14 -182 14 -30 14 -47 2 -75 -63 -145 -98 -273
-87 -317 3 -15 0 -34 -9 -47 -8 -12 -20 -42 -26 -67 -16 -54 -48 -127 -61
-135 -21 -13 -64 -92 -76 -139 -24 -93 -31 -102 -98 -134 -96 -46 -235 -59
-235 -22 0 6 -22 18 -50 28 -27 10 -66 32 -85 50 -20 18 -47 33 -60 33 -30 0
-65 48 -65 89 0 19 -6 34 -15 37 -8 3 -17 14 -20 24 -3 11 -24 23 -53 30 -26
8 -56 19 -67 27 -11 7 -33 13 -50 13 -44 0 -124 33 -168 70 -20 17 -55 56 -77
86 -35 46 -48 56 -97 70 -31 9 -66 27 -78 40 -12 13 -27 24 -32 24 -6 0 -27
11 -47 25 -26 18 -42 23 -53 16 -20 -11 -54 -3 -70 16 -6 8 -42 35 -80 61 -43
30 -69 55 -71 69 -2 14 -21 32 -50 49 -26 15 -61 39 -77 53 -17 14 -56 39 -86
55 -79 39 -101 91 -54 122 14 9 23 19 21 22 -6 6 25 62 35 62 4 0 12 13 19 30
7 16 25 35 41 42 23 10 29 19 29 43 0 16 9 44 20 60 11 17 20 40 20 52 0 12 5
25 10 28 15 9 12 35 -4 35 -8 0 -16 -7 -20 -15 -3 -8 -10 -15 -15 -15 -6 0 -8
7 -5 15 4 8 1 15 -5 15 -6 0 -11 13 -11 30 0 21 4 28 14 24 22 -8 30 15 11 36
-11 12 -13 20 -6 25 6 3 11 3 11 -2 0 -4 5 -1 10 7 6 10 10 11 10 3 0 -7 5
-13 10 -13 6 0 10 7 10 15 0 20 16 19 24 -1 5 -12 10 -10 30 13 20 22 27 26
37 16 10 -10 10 -13 1 -13 -7 0 -12 -9 -12 -20 0 -24 18 -27 27 -4 3 8 12 13
19 10 8 -3 14 1 14 9 0 8 7 18 15 23 9 4 17 18 18 30 1 14 8 22 20 22 13 0 17
5 13 16 -3 9 -6 18 -6 20 0 2 -5 4 -11 4 -6 0 -18 8 -27 17 -16 15 -15 16 11
9 26 -6 27 -5 21 20 -6 23 -4 26 10 21 10 -4 16 -1 16 9 0 21 69 104 86 104
23 0 16 27 -17 59 -29 30 -79 43 -79 21 0 -5 -4 -10 -10 -10 -5 0 -10 9 -10
20 0 12 -7 31 -15 44 -14 21 -14 24 1 30 11 4 14 10 8 16 -12 12 -45 -3 -109
-48 -51 -36 -57 -60 -16 -68 29 -6 30 -7 17 -38 -11 -28 -17 -31 -53 -31 -43
0 -43 -1 -27 54 6 21 5 23 -16 16 l-23 -7 23 31 c25 36 20 53 -8 28 -10 -10
-26 -17 -35 -17 -9 0 -27 -10 -38 -21 -17 -17 -23 -19 -30 -8 -9 15 47 79 69
79 6 0 12 5 12 11 0 13 -40 5 -84 -17 -16 -8 -37 -12 -47 -9 -9 3 -20 2 -23
-4 -3 -5 -14 -7 -24 -4 -10 2 -30 -7 -47 -22 -44 -37 -75 -43 -93 -17 -8 12
-23 22 -33 22 -11 0 -19 7 -19 15 0 8 -4 15 -10 15 -5 0 -10 6 -10 14 0 26
-21 29 -49 9 -43 -32 -64 -35 -106 -13 -26 13 -41 16 -44 9 -2 -6 -9 0 -15 13
-6 12 -16 23 -21 23 -6 0 -16 4 -22 8 -7 4 -22 3 -34 -3 -15 -8 -24 -9 -32 -1
-7 7 -5 12 6 17 9 3 17 12 17 19 0 16 -53 31 -58 16 -2 -6 -12 -11 -23 -11
-10 0 -19 -4 -19 -10 0 -14 -16 -12 -33 4 -9 9 -18 11 -24 5 -6 -6 -17 -2 -29
10 -14 12 -30 17 -52 13 -28 -4 -33 -1 -49 34 -19 44 -61 94 -77 94 -6 0 -22
-14 -35 -30 -23 -30 -51 -40 -51 -19 0 15 -61 89 -74 89 -6 0 -17 10 -25 21
-10 17 -15 19 -21 9 -7 -11 -14 -12 -36 -2 -33 15 -39 10 -24 -18 6 -11 9 -26
6 -33 -2 -7 -5 -5 -5 4 -1 17 -41 49 -61 49 -5 0 -10 -10 -11 -22 0 -13 -3
-17 -6 -10 -7 18 -20 15 -43 -10 -26 -28 -25 -40 3 -37 21 3 77 -41 77 -60 0
-17 31 -21 53 -7 38 24 83 29 99 11 7 -9 23 -28 36 -42 18 -20 20 -28 11 -39
-9 -11 -9 -17 1 -29 12 -14 5 -103 -7 -91 -3 3 -20 -4 -37 -17 -35 -25 -62
-31 -71 -16 -4 6 -20 0 -40 -15 -38 -30 -57 -32 -75 -11 -11 13 -16 13 -47 0
-78 -33 -155 -14 -164 39 -6 28 -27 31 -31 4 -3 -23 -11 -24 -73 -15 -5 1 -11
-7 -11 -18 -1 -11 -2 -28 -3 -37 -1 -11 -6 -15 -16 -11 -17 6 -58 -25 -49 -38
2 -5 -11 -2 -31 7 -20 8 -39 13 -43 10 -4 -3 -9 -21 -10 -42 -3 -43 -9 -55
-25 -52 -7 1 -21 -1 -33 -5 -16 -6 -20 -14 -17 -31 6 -31 -14 -68 -35 -65 -38
3 -42 -1 -42 -46 0 -32 6 -52 20 -67 26 -29 25 -35 -11 -69 -34 -32 -64 -37
-73 -13 -5 14 -8 14 -23 -2 -10 -9 -18 -22 -18 -28 -2 -29 -19 -92 -27 -103
-6 -7 -7 -20 -4 -29 8 -21 -11 -45 -30 -37 -8 3 -14 0 -14 -6 0 -6 -9 -11 -21
-11 -12 0 -19 -5 -16 -12 2 -7 -6 -32 -19 -56 -13 -23 -24 -48 -24 -55 0 -14
35 -47 50 -47 6 0 10 -4 10 -10 0 -5 17 -10 38 -10 33 -1 35 -2 20 -14 -23
-17 -23 -25 5 -54 21 -23 21 -24 2 -20 -17 2 -21 -4 -25 -42 -5 -42 -6 -44
-18 -23 -14 26 -61 53 -91 53 -23 0 -35 -30 -25 -62 6 -20 5 -21 -10 -9 -9 7
-16 19 -16 27 0 20 -41 44 -75 44 -16 0 -51 7 -77 14 -36 11 -55 12 -82 4 -37
-12 -38 -14 -18 -67 4 -10 -2 -12 -25 -7 -38 9 -58 -12 -49 -54 6 -32 -7 -41
-22 -14 -10 18 1 93 15 103 15 9 25 61 13 61 -18 0 -81 51 -130 104 -57 63
-91 97 -117 117 -11 9 -22 22 -24 28 -5 15 -99 26 -99 12 0 -6 -4 -11 -10 -11
-5 0 -10 7 -10 16 0 21 -40 53 -67 54 -12 0 -33 -5 -47 -11 -24 -11 -24 -13
-11 -40 14 -26 13 -28 -5 -34 -15 -5 -19 -12 -15 -26 5 -14 3 -17 -9 -13 -11
4 -16 0 -16 -15 0 -13 -5 -19 -14 -15 -22 8 -27 43 -8 53 13 7 14 13 6 21 -8
8 -15 7 -27 -4 -9 -9 -20 -16 -26 -16 -17 0 -50 -51 -44 -67 4 -11 2 -14 -5
-9 -7 4 -12 21 -12 38 0 34 -35 72 -58 63 -7 -3 -18 -5 -24 -5 -6 0 -8 -6 -5
-14 3 -8 1 -16 -5 -18 -8 -3 -7 -11 1 -27 8 -13 18 -20 27 -17 22 9 30 -25 10
-40 -11 -7 -15 -18 -10 -25 4 -7 0 -18 -11 -25 -15 -11 -16 -16 -5 -29 10 -12
9 -16 -6 -22 -11 -3 -22 -11 -26 -17 -5 -6 -8 -2 -8 11 0 22 -30 39 -60 35
-13 -2 -12 -1 1 10 26 21 25 28 -5 43 -39 21 -49 11 -41 -41 6 -39 4 -44 -14
-44 -10 0 -21 -6 -24 -12 -3 -10 -7 -10 -19 -1 -16 14 -30 2 -75 -63 -20 -30
-20 -31 -3 -54 13 -17 15 -28 9 -36 -7 -9 -3 -15 13 -20 13 -4 26 -8 31 -9 4
0 7 -3 7 -7 0 -5 0 -12 0 -16 0 -17 -55 -6 -65 13 -15 29 -51 27 -48 -2 2 -18
-2 -23 -21 -23 -27 0 -59 -31 -38 -37 6 -3 12 -11 12 -19 0 -12 -8 -13 -35 -8
-32 6 -35 4 -35 -17 0 -49 -11 -68 -37 -66 -14 1 -28 -5 -33 -13 -4 -8 -12
-25 -18 -36 -13 -26 -1 -86 22 -109 9 -9 16 -21 16 -26 0 -17 17 -9 28 14 9
19 10 17 5 -13 -6 -38 -23 -65 -23 -37 0 9 -7 17 -15 17 -8 0 -15 -9 -15 -19
0 -11 -4 -22 -10 -26 -5 -3 -7 -12 -3 -20 3 -8 2 -26 -1 -40 -8 -30 -41 -34
-49 -6 -3 12 -17 21 -41 25 -21 4 -45 10 -53 13 -12 5 -15 2 -10 -9 3 -10 0
-19 -9 -22 -24 -9 -27 -7 -21 14 6 24 -30 55 -47 41 -6 -5 -20 -10 -30 -12
-26 -5 -28 -46 -4 -63 18 -13 17 -14 -9 -21 -27 -6 -28 -7 -8 -22 20 -15 20
-15 -2 -9 -28 9 -39 -11 -19 -33 9 -10 16 -23 16 -29 0 -7 8 -12 18 -12 19 -1
62 -33 62 -47 0 -5 6 -15 12 -21 7 -7 13 -26 14 -42 1 -26 0 -27 -17 -17 -11
7 -19 15 -19 19 0 5 -9 8 -19 8 -25 0 -34 -26 -19 -53 12 -22 12 -39 2 -86 -5
-22 -6 -23 -25 -6 -10 10 -26 31 -34 47 -8 15 -22 42 -31 59 -9 17 -22 33 -30
36 -8 3 -14 13 -14 23 0 11 -5 22 -10 25 -6 4 -8 15 -5 26 4 12 2 19 -7 19 -7
0 -22 7 -32 15 -18 14 -18 15 -1 42 12 18 14 28 7 31 -7 2 -12 10 -12 17 0 22
-50 -7 -56 -33 -4 -12 -13 -26 -21 -31 -9 -4 -19 -26 -22 -47 -5 -30 -11 -39
-26 -39 -33 -1 -47 -15 -41 -41 5 -17 3 -22 -7 -18 -19 7 -71 -54 -96 -112
-23 -51 -28 -133 -9 -152 6 -6 13 -40 14 -74 3 -59 14 -82 29 -59 11 19 35 12
35 -10 0 -25 -139 -162 -157 -154 -18 6 -47 -53 -34 -69 13 -15 4 -26 -20 -26
-23 0 -34 -17 -20 -34 6 -7 7 -17 2 -22 -5 -5 -14 -27 -21 -49 -21 -68 -87
-171 -137 -213 -94 -78 -314 -181 -417 -196 -10 -1 -29 -13 -42 -25 -21 -20
-27 -21 -65 -11 -60 16 -120 10 -144 -14 -11 -12 -29 -38 -40 -60 -17 -33 -56
-62 -77 -58 -4 1 -25 -4 -45 -12 -38 -14 -89 -28 -109 -30 -11 -1 -84 -62 -84
-71 0 -15 -56 -65 -73 -65 -12 0 -40 -9 -64 -21 -47 -23 -93 -20 -93 7 0 19
-32 11 -72 -17 -25 -17 -58 -26 -58 -15 0 3 4 16 10 30 15 41 -12 33 -41 -11
-13 -21 -34 -42 -46 -48 -13 -5 -23 -15 -23 -22 0 -7 -8 -13 -19 -13 -10 0
-24 -6 -30 -14 -7 -8 -20 -12 -30 -9 -14 4 -21 -2 -25 -24 -5 -18 -21 -36 -45
-51 -23 -15 -42 -37 -50 -57 -6 -19 -20 -37 -30 -40 -10 -3 -33 -27 -52 -53
-38 -53 -68 -81 -87 -82 -7 0 -28 -11 -46 -25 -18 -14 -38 -25 -44 -25 -5 0
-33 -18 -61 -40 -38 -30 -51 -47 -51 -66 0 -18 -7 -28 -20 -31 -15 -4 -19 -11
-14 -25 3 -10 1 -24 -4 -31 -5 -7 -13 -35 -17 -64 -5 -37 -11 -50 -20 -47 -7
3 -19 -4 -27 -15 -19 -27 -30 -16 -17 17 8 20 6 29 -12 48 -19 21 -21 31 -17
93 3 39 3 73 0 75 -8 9 -41 -13 -58 -39 -8 -13 -21 -57 -29 -97 -7 -40 -22
-96 -33 -125 -22 -57 -19 -99 7 -108 32 -10 65 -105 42 -120 -6 -3 -6 -17 -1
-33 21 -66 19 -101 -4 -129 -48 -58 -74 -204 -54 -304 7 -34 20 -57 53 -89 25
-25 45 -52 45 -61 0 -10 5 -21 10 -24 6 -3 10 -14 10 -24 0 -10 9 -26 20 -37
34 -32 40 -38 60 -63 11 -13 20 -29 20 -35 0 -6 23 -36 50 -65 28 -30 50 -59
50 -63 0 -4 6 -8 14 -8 9 0 13 -18 14 -65 1 -36 6 -75 13 -86 9 -18 7 -25 -9
-42 -29 -29 -46 -12 -74 74 -22 69 -45 88 -40 33 2 -31 -12 -63 -24 -51 -4 4
-6 29 -5 56 1 46 -1 51 -55 105 -31 32 -58 55 -60 53 -3 -2 -7 -20 -11 -40 -4
-28 1 -44 26 -80 17 -25 31 -50 31 -55 0 -17 59 -71 85 -78 28 -7 30 -9 39
-46 5 -20 1 -33 -14 -48 -26 -26 -38 -25 -46 5 -3 14 -10 23 -14 20 -5 -3 -11
8 -15 25 -4 16 -10 30 -15 30 -5 0 -23 20 -41 44 -35 49 -59 51 -59 6 0 -23
-4 -27 -20 -23 -27 7 -25 -11 4 -34 13 -10 26 -28 30 -38 3 -11 25 -33 49 -50
73 -52 116 -96 193 -197 83 -111 107 -159 101 -203 -5 -33 35 -135 53 -135 16
0 107 -88 131 -126 11 -19 19 -42 16 -51 -2 -12 16 -37 53 -73 69 -66 101
-125 112 -205 20 -145 36 -225 47 -225 4 0 13 -21 20 -47 15 -51 71 -152 96
-173 8 -7 29 -38 47 -69 18 -30 58 -90 90 -131 50 -66 59 -85 73 -154 11 -50
13 -82 7 -88 -6 -6 -5 -19 4 -36 16 -31 18 -54 5 -67 -18 -20 -17 -52 5 -115
34 -99 37 -130 19 -193 -24 -82 -90 -125 -125 -82 -23 27 -37 18 -34 -22 11
-124 36 -212 70 -244 23 -22 24 -22 44 -4 19 17 22 17 75 -3 68 -26 138 -73
166 -111 14 -19 27 -27 40 -24 10 3 53 -7 95 -21 48 -17 84 -24 98 -20 11 4
33 7 48 6 15 -1 29 2 32 7 3 5 14 7 24 4 9 -2 36 0 58 5 23 5 48 6 55 2 8 -4
26 -10 40 -14 21 -4 28 -2 32 13 4 18 9 19 40 9 37 -11 67 -6 67 12 0 5 -8 10
-17 10 -28 0 -9 10 28 14 25 2 34 8 34 22 0 13 8 20 28 22 22 3 27 8 27 32 0
22 8 33 38 51 43 26 54 39 47 56 -2 6 14 21 35 32 32 16 45 19 67 10 30 -11
58 -5 48 12 -4 6 0 9 11 7 13 -2 19 3 18 15 -1 13 3 16 16 12 22 -7 38 14 19
25 -21 14 5 82 43 110 53 40 69 45 138 48 36 2 74 9 86 17 31 20 212 59 269
58 107 -3 120 -2 136 13 15 13 18 13 33 -1 9 -9 16 -19 16 -23 0 -4 4 -13 9
-21 7 -11 13 -11 32 -1 13 7 28 19 33 27 6 11 18 13 41 9 22 -5 36 -2 45 9 7
8 27 15 44 16 17 0 40 4 51 8 24 10 55 -4 55 -24 0 -22 26 -18 55 9 15 14 33
22 45 19 19 -5 94 53 85 67 -3 4 9 23 25 41 16 19 32 50 35 69 21 133 55 177
154 200 33 8 68 25 90 44 44 39 109 81 139 90 12 4 53 33 91 64 87 71 126 84
212 72 95 -14 259 11 339 50 19 10 70 30 113 44 86 29 175 72 254 122 45 29
70 35 216 58 108 17 206 26 282 26 104 0 122 3 166 24 l49 25 86 -40 c83 -38
174 -98 203 -133 18 -22 122 -21 114 1 -9 24 67 13 112 -16 22 -14 44 -26 48
-26 5 0 14 -7 20 -15 16 -21 114 -24 143 -5 20 13 24 12 40 -10 10 -14 24 -25
30 -25 6 0 18 -7 25 -17 11 -13 11 -17 2 -20 -13 -5 -19 -63 -7 -63 3 0 22 7
41 16 33 16 35 16 53 -2 10 -10 21 -29 25 -41 6 -21 3 -23 -29 -23 -37 0 -42
-5 -26 -30 5 -9 5 -19 -1 -27 -13 -15 -3 -33 16 -33 9 0 12 -6 8 -16 -4 -10 0
-20 10 -26 10 -5 17 -15 17 -22 0 -17 22 -26 47 -20 25 7 100 -32 115 -59 6
-11 11 -38 11 -59 0 -34 6 -45 52 -86 58 -52 78 -83 74 -115 -2 -12 2 -31 8
-42 14 -28 25 -105 14 -105 -5 0 -14 7 -21 15 -18 22 -26 19 -40 -15 -14 -34
-8 -49 13 -31 11 8 18 7 31 -7 9 -10 13 -21 10 -24 -3 -4 3 -9 14 -12 21 -7
72 -67 72 -85 0 -16 11 -14 32 6 17 15 20 15 48 -12 33 -31 34 -30 44 43 6 40
5 43 -15 40 -12 -2 -24 3 -26 10 -3 6 2 12 11 12 10 0 15 8 13 22 -2 18 3 23
23 23 19 0 26 6 28 25 2 14 15 36 29 49 14 13 31 38 39 56 7 18 26 40 41 50
15 10 33 24 38 31 8 10 112 58 166 77 20 7 64 84 81 141 17 57 67 107 98 99
17 -5 22 -3 18 8 -2 8 1 32 7 54 l12 40 6 -50 c4 -26 14 -56 22 -66 15 -15 13
-18 -21 -38 -30 -18 -35 -26 -29 -44 29 -96 30 -89 -19 -143 -50 -53 -76 -96
-76 -126 0 -10 -6 -21 -14 -24 -10 -4 -12 -17 -9 -46 4 -27 2 -43 -7 -48 -11
-7 -11 -15 -1 -48 18 -53 -2 -147 -28 -137 -9 4 -35 8 -59 9 -38 2 -45 -1 -58
-26 -8 -16 -12 -32 -10 -37 3 -5 -3 -16 -14 -26 -38 -34 -12 -86 27 -54 9 8
25 13 35 11 11 -2 28 4 39 14 10 9 19 14 19 10 0 -3 10 0 23 8 19 13 26 13 54
-1 42 -20 56 -9 74 55 7 26 19 58 26 72 7 14 13 44 13 66 0 25 7 51 19 65 10
14 21 35 23 47 1 13 8 21 13 20 6 -2 9 -7 7 -11 -1 -4 5 -10 13 -13 8 -4 15
-18 15 -32 0 -14 6 -33 14 -41 48 -55 60 -128 40 -246 -6 -39 -56 -105 -80
-105 -6 0 -17 -12 -24 -26 -19 -34 -6 -41 70 -39 46 1 65 7 83 23 l23 22 42
-21 c58 -29 160 -143 199 -222 37 -72 66 -186 57 -214 -4 -10 -18 -28 -31 -39
-22 -19 -24 -24 -13 -44 6 -12 9 -31 7 -42 -6 -22 59 -138 77 -138 6 0 17 -12
24 -28 68 -145 106 -182 184 -182 44 0 54 -4 99 -47 36 -33 48 -51 44 -65 -5
-13 -1 -18 14 -18 11 0 22 -4 25 -9 10 -16 45 0 48 23 4 30 58 26 104 -9 26
-20 41 -25 64 -20 32 7 86 -22 129 -69 14 -14 33 -26 42 -26 10 0 34 -14 52
-30 19 -17 44 -30 55 -30 12 0 26 -9 32 -20 14 -26 29 -25 64 5 16 14 33 25
37 25 4 0 31 20 60 45 29 25 58 45 63 45 6 0 22 9 36 20 48 37 91 23 135 -44
19 -29 59 -35 69 -11 3 8 16 15 29 15 19 0 26 7 31 31 5 26 10 30 33 27 22 -2
29 -9 31 -30 3 -22 0 -27 -12 -22 -11 4 -16 0 -16 -14 0 -11 -5 -22 -12 -24
-8 -3 2 -19 24 -42 24 -24 43 -36 53 -33 15 7 45 -37 45 -67 0 -23 22 -31 36
-12 10 15 15 15 33 4 12 -7 21 -20 21 -29 0 -23 30 -79 41 -79 16 0 35 23 37
45 0 11 4 35 8 52 5 26 3 33 -9 33 -8 0 -17 -7 -21 -15 -8 -22 -19 -18 -32 9
-10 21 -9 25 7 29 10 3 20 2 24 -1 8 -9 120 -2 123 8 2 5 9 7 15 4 7 -2 67 38
133 89 67 51 137 101 157 110 53 26 143 39 206 32 31 -3 88 -8 126 -10 39 -3
89 -7 112 -10 46 -5 98 12 127 44 11 12 31 21 48 21 19 0 28 5 30 18 0 9 2 22
3 27 2 6 3 20 4 32 1 16 5 21 17 16 13 -5 15 -2 8 18 -21 65 -7 146 38 211 10
14 18 36 18 47 0 12 6 32 14 44 8 12 22 54 31 92 10 39 24 74 31 78 8 4 14 13
14 19 0 5 14 27 30 48 17 21 30 42 30 47 0 6 9 18 20 28 11 10 20 23 20 30 0
20 36 46 55 39 11 -5 24 2 41 21 13 16 24 29 24 30 0 1 -5 17 -12 35 -9 28 -8
35 5 45 15 11 36 53 33 66 0 3 4 12 10 20 7 8 15 29 19 47 4 20 20 43 42 60
76 60 90 77 113 149 15 48 29 75 42 79 10 3 18 11 18 17 0 7 12 26 26 42 15
17 37 46 49 65 39 61 76 88 125 94 27 3 49 12 57 23 24 36 57 62 85 69 32 7
47 33 53 98 4 44 30 86 62 100 19 9 27 20 57 83 9 17 20 34 26 38 13 8 40 72
40 95 0 9 9 25 20 35 11 10 20 24 20 32 0 7 6 22 13 33 10 17 9 22 -2 29 -21
14 1 111 36 157 12 17 23 36 23 41 0 6 7 16 15 23 8 7 15 22 15 34 0 11 9 32
20 46 11 14 20 30 20 37 0 11 6 27 41 108 5 11 10 34 11 50 1 17 11 43 22 60
11 16 21 36 23 43 1 8 15 29 31 46 33 36 58 106 40 117 -7 5 -7 22 3 60 14 61
14 100 -2 110 -6 3 -12 38 -14 78 -2 39 -7 76 -11 83 -5 7 -7 24 -6 38 1 15
-7 36 -18 48 -11 11 -20 28 -20 36 0 8 -4 18 -10 21 -6 4 -5 13 3 26 10 16 9
21 -2 28 -10 6 -10 10 -1 16 6 4 14 4 17 1 14 -14 31 16 24 42 -8 25 -7 62 3
208 3 39 14 80 30 112 30 60 31 62 11 62 -8 0 -15 8 -15 19 0 10 -11 26 -25
35 -28 18 -34 62 -13 99 16 29 10 80 -10 92 -18 10 -24 12 -47 14 -8 0 -15 9
-15 19 0 10 -7 28 -17 41 -9 13 -16 39 -15 59 2 44 -11 68 -46 84 -38 18 -92
102 -92 144 0 41 -19 84 -37 84 -7 0 -16 13 -19 29 -7 34 -46 50 -71 29 -13
-10 -19 -8 -39 17 -13 17 -24 35 -24 41 0 6 -11 16 -24 23 -13 8 -27 25 -30
40 -3 14 -14 37 -25 51 -16 20 -21 22 -35 11 -14 -12 -16 -10 -16 12 0 14 -5
37 -11 51 -9 19 -9 29 0 39 8 10 8 22 0 45 -9 26 -7 44 10 96 18 56 19 71 9
120 -6 31 -15 56 -19 56 -5 0 -9 7 -9 15 0 8 -10 19 -21 26 -27 14 -41 -3 -36
-43 2 -16 1 -28 -1 -28 -3 0 -22 16 -43 35 -22 19 -44 35 -49 35 -6 0 -10 8
-10 18 0 28 -29 82 -44 82 -28 0 -51 -41 -50 -87 1 -45 1 -45 -13 -19 -13 26
-33 35 -33 16 0 -5 -5 -10 -12 -10 -6 0 -8 3 -5 7 4 3 -1 18 -10 32 -30 46
-62 211 -41 211 5 0 4 9 -2 19 -7 13 -7 22 0 26 16 10 12 35 -6 35 -8 0 -12 5
-9 10 3 6 2 10 -3 10 -5 0 -12 17 -16 39 -3 21 -12 44 -20 50 -11 9 -12 19 -6
36 8 21 3 30 -34 68 -24 25 -53 48 -65 52 -12 4 -20 9 -17 13 4 3 -4 16 -16
29 -12 12 -18 26 -15 30 4 3 2 12 -5 20 -18 22 6 41 32 25 11 -6 27 -12 36
-12 15 0 15 2 1 23 -8 12 -18 37 -22 56 -4 20 -14 35 -26 38 -10 3 -19 12 -19
19 0 8 -7 14 -15 14 -8 0 -15 8 -15 19 0 27 -49 35 -59 9 -7 -18 -7 -18 -23
-1 -9 10 -18 27 -19 37 -2 10 -13 24 -24 30 -11 6 -23 16 -27 22 -4 6 -18 9
-31 7 -27 -5 -44 11 -49 47 -4 33 -48 42 -48 11 0 -34 -18 -24 -29 17 -6 20
-11 41 -11 46 0 19 -51 116 -61 116 -6 0 -6 -7 1 -20 10 -18 8 -20 -17 -20
-56 0 -72 11 -83 51 -11 41 -24 50 -34 24 -8 -21 -34 -19 -48 5 -7 11 -19 20
-27 20 -24 0 -79 40 -112 81 l-31 40 17 60 c9 34 15 62 13 64 -2 1 -13 8 -26
14 -13 7 -27 22 -32 34 -6 12 -20 35 -32 50 l-23 28 23 42 c12 23 24 56 26 72
2 17 7 46 11 66 4 23 3 39 -4 43 -6 4 -11 22 -11 41 0 19 -4 36 -9 39 -5 3
-12 23 -16 43 -4 21 -12 44 -17 51 -8 9 -8 20 1 38 17 37 14 44 -18 44 -23 0
-34 8 -51 35 -12 19 -25 35 -29 35 -10 0 -61 97 -61 116 0 8 6 17 13 20 8 3
12 21 11 52 -3 70 -3 69 -16 84 -11 11 -14 31 -18 121 -1 9 -5 17 -11 17 -14
0 -11 54 6 76 19 25 19 48 0 40 -22 -8 -19 36 5 67 l20 25 -25 16 c-14 9 -24
21 -22 27 1 6 -14 16 -33 22 -22 8 -44 26 -59 50 -13 20 -30 37 -38 37 -7 0
-13 5 -13 10 0 6 -8 10 -19 10 -29 0 -45 25 -31 49 7 14 7 21 0 21 -5 0 -10 8
-10 18 -1 18 -22 52 -34 52 -4 0 -20 -10 -37 -22 -25 -19 -33 -20 -50 -10 -20
13 -44 7 -34 -8 11 -18 -39 -51 -74 -48 -44 4 -69 37 -77 103 -3 28 -17 74
-31 103 -24 52 -24 53 -7 112 12 43 14 63 6 73 -16 19 -27 163 -13 171 24 15
10 29 -24 23 -39 -6 -41 -3 -20 33 21 37 18 55 -10 68 -16 8 -25 20 -25 35 0
27 -28 57 -53 57 -9 0 -15 6 -13 13 3 6 7 24 10 40 4 15 16 37 27 48 l20 20
-23 19 c-14 12 -31 17 -46 13 -14 -3 -30 1 -42 12 -17 15 -20 31 -19 104 0 79
-3 113 -17 179 -3 13 -21 39 -42 58 -29 26 -34 36 -24 46 9 9 8 16 -5 30 -9
10 -19 17 -22 17 -3 -1 -13 -3 -21 -5z m-6030 -1675 c0 -18 -2 -19 -15 -9 -15
12 -12 30 6 30 5 0 9 -10 9 -21z m-140 -359 c0 -5 -10 -10 -22 -9 -22 0 -22 1
-3 9 11 5 21 9 23 9 1 1 2 -3 2 -9z m4355 -5659 c3 -5 1 -12 -5 -16 -5 -3 -10
1 -10 9 0 18 6 21 15 7z m3729 -1196 c-4 -8 -8 -15 -10 -15 -2 0 -4 7 -4 15 0
8 4 15 10 15 5 0 7 -7 4 -15z m-1794 -799 c0 -7 6 -26 14 -41 13 -24 12 -30
-8 -60 -23 -38 -46 -50 -77 -40 -14 5 -18 12 -13 23 4 10 7 26 8 37 1 17 -5
20 -39 18 l-40 -2 40 24 c22 14 45 25 51 25 6 0 17 7 24 15 16 19 40 20 40 1z"/>
<path d="M7647 3040 c-37 -4 -73 -12 -79 -18 -7 -7 -29 -12 -49 -12 -61 0
-106 -25 -114 -62 -6 -26 -4 -35 14 -46 11 -8 21 -20 21 -27 0 -12 87 -11 140
2 33 8 51 5 72 -14 16 -14 20 -14 43 1 14 9 25 23 25 31 0 25 36 37 79 25 66
-18 95 12 49 51 -24 22 -54 25 -61 7 -4 -10 -7 -10 -15 0 -5 8 -18 12 -28 10
-16 -2 -18 2 -16 30 2 17 0 31 -5 31 -4 -1 -39 -5 -76 -9z"/>
<path d="M9390 1511 c0 -5 -7 -16 -15 -24 -18 -18 -28 -156 -13 -174 7 -9 17
-7 41 10 18 12 34 23 35 24 2 1 6 33 8 71 4 65 3 71 -21 86 -28 18 -35 20 -35
7z"/>
<path d="M10468 1353 c-10 -3 -18 -9 -18 -15 0 -6 -8 -17 -17 -24 -17 -13 -17
-15 0 -28 10 -8 15 -20 11 -30 -3 -9 -2 -16 4 -16 9 0 24 -39 26 -70 1 -11 13
-15 46 -15 l45 0 5 54 c5 47 3 55 -13 59 -10 2 -27 22 -37 43 -22 43 -28 47
-52 42z"/>
<path d="M9555 1119 c-5 -7 -8 -28 -7 -46 2 -18 -2 -33 -8 -33 -16 0 -32 -50
-21 -64 6 -6 10 -27 10 -46 0 -50 7 -94 19 -117 6 -11 12 -30 14 -44 2 -13 16
-44 30 -69 15 -25 31 -57 37 -72 11 -29 6 -58 -10 -58 -13 0 -5 -158 9 -172 7
-7 12 -23 12 -36 0 -36 22 -102 31 -96 9 5 59 -91 59 -113 0 -7 7 -13 16 -13
8 0 13 -4 9 -9 -3 -5 -1 -12 5 -16 5 -3 10 -18 10 -33 0 -27 1 -27 66 -28 54
-1 70 -5 83 -21 27 -33 91 -39 91 -8 0 6 8 20 19 29 17 16 19 16 25 0 4 -9 9
-14 13 -11 3 4 14 2 24 -4 15 -8 21 -4 34 20 8 16 12 37 9 45 -4 11 0 16 11
16 14 0 17 6 12 34 -5 31 -3 36 24 45 26 9 29 13 23 38 -7 25 -6 27 9 14 13
-10 14 -18 6 -32 -12 -23 -6 -74 12 -95 9 -11 15 -12 26 -3 10 9 17 9 25 1 21
-21 30 -13 27 28 -2 21 0 42 4 46 11 11 8 49 -4 61 -15 15 -1 36 18 28 18 -6
53 21 53 42 0 20 -30 29 -41 12 -7 -11 -9 -11 -9 -1 0 7 7 20 15 29 8 8 13 19
9 24 -3 6 0 17 7 25 6 8 9 17 6 21 -11 10 26 63 44 63 14 0 16 -6 12 -27 -10
-50 -8 -57 11 -61 14 -3 17 0 13 12 -3 8 -2 18 4 22 5 3 9 27 9 52 -2 66 8
149 19 171 6 10 7 27 4 39 -3 13 2 33 12 48 13 20 15 32 7 49 -8 17 -6 29 9
54 22 37 13 69 -35 114 -33 30 -56 35 -56 12 0 -23 -28 -30 -56 -15 -22 12
-27 11 -53 -14 -25 -24 -31 -26 -49 -15 -16 10 -24 10 -35 1 -8 -7 -22 -10
-30 -6 -17 6 -126 -13 -142 -26 -19 -14 -112 -4 -141 16 -16 11 -41 25 -56 32
-16 6 -28 18 -28 27 0 8 -6 15 -14 15 -8 0 -21 6 -29 14 -7 8 -25 16 -38 18
-13 1 -25 10 -25 18 -1 8 -2 21 -3 28 -1 17 -21 15 -21 -3 0 -8 -9 -15 -20
-15 -24 0 -90 36 -106 58 -9 12 -12 13 -19 1z m115 -599 l13 -25 -20 20 c-11
11 -18 24 -16 28 6 10 7 9 23 -23z m594 -305 c3 -8 1 -15 -4 -15 -6 0 -10 7
-10 15 0 8 2 15 4 15 2 0 6 -7 10 -15z m-184 -110 c-7 -8 -17 -15 -22 -15 -6
0 -5 7 2 15 7 8 17 15 22 15 6 0 5 -7 -2 -15z"/>
</g>
</svg>
